HIERARCHY
ROOT Hips
{
  OFFSET 0 0 0
  CHANNELS 6 Xposition Yposition Zposition Zrotation Yrotation Xrotation
  JOINT LeftThigh
  {
    OFFSET 8.409438 0 -5.917753
    CHANNELS 3 Zrotation Yrotation Xrotation
    JOINT LeftLeg
    {
      OFFSET 0 0 -42.358652
      CHANNELS 3 Zrotation Yrotation Xrotation
      JOINT LeftFoot
      {
        OFFSET 0 0 -39.357303
        CHANNELS 3 Zrotation Yrotation Xrotation
      }
    }
  }
  JOINT RightThigh
  {
    OFFSET -8.409438 0 -5.917753
    CHANNELS 3 Zrotation Yrotation Xrotation
    JOINT RightLeg
    {
      OFFSET 0 0 -42.358652
      CHANNELS 3 Zrotation Yrotation Xrotation
      JOINT RightFoot
      {
        OFFSET 0 0 -39.357303
        CHANNELS 3 Zrotation Yrotation Xrotation
      }
    }
  }
  JOINT SpineLow
  {
    OFFSET 0 0 4.719101
    CHANNELS 3 Zrotation Yrotation Xrotation
    JOINT SpineMid
    {
      OFFSET 0 0 12.899191
      CHANNELS 3 Zrotation Yrotation Xrotation
      JOINT Chest
      {
        OFFSET 0 0 12.899191
        CHANNELS 3 Zrotation Yrotation Xrotation
        JOINT LeftShoulder
        {
          OFFSET 7.550562 1.41573 9.438202
          CHANNELS 3 Zrotation Yrotation Xrotation
          JOINT LeftArm
          {
            OFFSET 9.155056 0 4.247191
            CHANNELS 3 Zrotation Yrotation Xrotation
            JOINT LeftForearm
            {
              OFFSET 0 0 25.771955
              CHANNELS 3 Zrotation Yrotation Xrotation
              JOINT LeftHand
              {
                OFFSET 0 0 25.197169
                CHANNELS 3 Zrotation Yrotation Xrotation
              }
            }
          }
        }
        JOINT RightShoulder
        {
          OFFSET -7.550562 1.41573 9.438202
          CHANNELS 3 Zrotation Yrotation Xrotation
          JOINT RightArm
          {
            OFFSET -9.155056 0 4.247191
            CHANNELS 3 Zrotation Yrotation Xrotation
            JOINT RightForearm
            {
              OFFSET 0 0 -25.771955
              CHANNELS 3 Zrotation Yrotation Xrotation
              JOINT RightHand
              {
                OFFSET 0 0 -25.197169
                CHANNELS 3 Zrotation Yrotation Xrotation
              }
            }
          }
        }
        JOINT Neck
        {
          OFFSET 0 0 15.101124
          CHANNELS 3 Zrotation Yrotation Xrotation
          JOINT Head
          {
            OFFSET 0 0 11.325843
            CHANNELS 3 Zrotation Yrotation Xrotation
            End Site
            {
              OFFSET 0 0 14.157303
            }
          }
        }
      }
    }
  }
}
MOTION
Frames: 16
Frame Time: 0.0
0.0  89.887642  0.0  3.435626  -18.139724  -97.317275  1.910362  -10.915744  -0.835004  3.554182  4.095944  26.913558  -0.057038  0.816176  -0.210618  -20.149806  11.678821  -2.07889  -16.724703  3.806523  0.681737  13.081381  0.933127  -0.702349  0.447713  -0.409369  0.331563  1.218249  -1.125038  0.898761  1.218249  -1.125038  0.898762  -4.966103  14.1312  0.385302  152.228088  43.058628  -154.500039  -9.637033  -1.522428  14.78804  91.964093  -6.877187  10.480465  -6.81807  -0.776945  16.400369  92.615184  31.839869  36.901945  -5.760828  3.517786  -43.260338  98.110358  6.415852  -21.073168  -5.115791  3.911763  3.703557  -3.859255  2.903203  2.80961  
0.0  89.887642  0.0  3.507691  -17.867564  -97.255422  1.94583  -10.905647  -1.130247  3.428767  4.291003  27.208563  -0.118076  0.781421  -0.184309  -20.355509  11.80906  -2.442891  -16.483502  4.000257  1.263747  13.205867  1.006125  -0.797468  0.492466  -0.369685  0.333599  1.341074  -1.017221  0.904354  1.341074  -1.017221  0.904354  -5.202367  13.994508  0.412647  152.071963  43.225116  -154.372302  -9.535951  -1.515245  14.448015  92.079719  -6.966108  10.46222  -6.838915  -0.80266  16.357183  92.869678  31.707506  36.436875  -6.209557  2.144912  -45.133144  96.913684  5.754573  -21.437025  -5.442601  3.81287  3.667382  -4.103525  2.827394  2.783781  
0.0  89.887642  0.0  3.538951  -17.386215  -97.115012  1.875626  -10.921175  -1.441757  3.197121  4.490142  27.442909  -0.180402  0.767846  -0.189163  -20.602709  11.838269  -2.85137  -16.585428  4.2452  1.828529  13.367477  1.108964  -0.852069  0.556587  -0.365171  0.338458  1.516339  -1.005864  0.916747  1.516339  -1.005864  0.916747  -5.585463  14.106312  0.401849  151.841339  43.499317  -154.217315  -9.305928  -1.446343  14.144455  92.203821  -7.068976  10.483844  -7.142142  -0.691434  16.159609  93.424402  31.413493  36.027157  -6.794016  0.87242  -47.189758  95.418061  4.997836  -21.981246  -5.973733  3.799989  3.584581  -4.501153  2.815403  2.724949  
0.0  89.887642  0.0  3.622348  -16.939599  -97.020449  1.673854  -10.865817  -1.84327  3.124107  4.688288  27.783456  -0.202145  0.741009  -0.159409  -20.452304  11.867177  -3.170295  -16.648972  4.660935  2.446761  13.38254  1.18045  -0.921505  0.630319  -0.320793  0.341188  1.718444  -0.885658  0.92422  1.718444  -0.885658  0.92422  -5.989824  13.984382  0.410692  151.669618  43.870113  -153.995385  -9.037929  -1.280663  13.723604  92.374796  -7.205859  10.487849  -7.123818  -0.839916  16.139515  93.832637  31.124165  35.457621  -7.282952  -0.512333  -49.441857  93.602959  4.050757  -22.406846  -6.492746  3.683585  3.541203  -4.889441  2.725555  2.69453  
0.0  89.887642  0.0  3.588807  -16.458922  -97.024896  1.891728  -11.021633  -1.793593  2.808125  4.987742  27.899057  -0.38054  0.655512  -0.24709  -20.39839  11.785517  -3.36017  -16.626044  5.145474  3.073406  13.53924  1.276553  -0.939546  0.724946  -0.3172  0.357295  1.976939  -0.877633  0.967075  1.976939  -0.877632  0.967075  -6.393993  14.039431  0.454119  151.376784  44.365605  -153.735626  -8.644967  -1.012229  13.215573  92.622158  -7.41337  10.471893  -7.102612  -0.878573  16.165459  94.311401  30.780044  34.752254  -7.666575  -2.047772  -51.815268  91.368294  2.968174  -22.850947  -7.106925  3.628945  3.527516  -5.349587  2.681238  2.687433  
0.0  89.887642  0.0  3.674379  -15.593649  -96.973691  1.205959  -10.866045  -2.184004  2.774033  5.135752  28.227961  -0.346529  0.667288  -0.207785  -20.70049  11.87486  -3.664451  -16.511357  5.636356  3.710798  13.439554  1.33124  -0.965125  0.801185  -0.265523  0.378888  2.185821  -0.73822  1.026765  2.185821  -0.73822  1.026765  -7.001273  13.869742  0.348842  151.034772  44.89931  -153.429668  -8.127799  -0.700026  12.647317  92.998792  -7.684355  10.537187  -7.018292  -1.14477  16.121523  94.67125  30.361448  33.884313  -8.003192  -4.05589  -54.387459  89.123706  1.600394  -23.086181  -7.860062  3.470832  3.441069  -5.913022  2.559479  2.625215  
0.0  89.887642  0.0  3.552998  -15.054733  -97.174328  0.889024  -10.95219  -2.218927  3.491699  5.094476  29.071821  -0.89301  0.518092  -0.528661  -20.707063  11.868716  -3.604924  -16.243125  6.073478  4.409378  13.273448  1.425074  -0.999325  0.978581  -0.247099  0.484356  2.669871  -0.694859  1.313738  2.669872  -0.694859  1.313738  -7.800662  13.602529  0.016583  150.574327  45.503172  -153.01683  -7.427075  -0.354172  11.991925  93.550918  -8.014894  10.735374  -7.012325  -1.547647  15.905365  95.230581  29.972658  32.989182  -8.028305  -6.513802  -57.151568  86.536578  0.013699  -22.855506  -8.803259  3.243775  3.230571  -6.618055  2.386973  2.46966  
0.0  89.887642  0.0  3.603137  -13.757934  -97.074837  -0.0149  -10.784489  -2.598445  3.265874  5.233034  29.200656  -0.840074  0.579656  -0.458311  -21.417113  12.060487  -3.890438  -16.10713  6.455357  5.007377  13.102873  1.490704  -0.987974  1.091702  -0.211575  0.499765  2.979615  -0.60071  1.356222  2.979615  -0.60071  1.356223  -8.681189  13.455314  -0.117557  150.018769  46.176355  -152.506975  -6.448927  0.0853  11.226201  94.218626  -8.418099  10.989652  -6.993246  -1.841476  15.96315  96.170693  29.629535  32.101176  -8.039375  -8.958027  -60.026908  83.240287  -1.629262  -22.578124  -9.929349  3.094495  3.14987  -7.461391  2.270485  2.412908  
0.0  89.887642  0.0  3.625749  -12.259476  -96.99233  -0.969892  -10.667972  -2.934092  3.036106  5.403938  29.357094  -0.696452  0.654141  -0.377249  -22.320026  12.271197  -4.079776  -15.584007  6.816318  5.598157  12.632879  1.558249  -1.030478  1.235274  -0.18282  0.524801  3.372412  -0.526343  1.424751  3.372412  -0.526343  1.424751  -9.778002  13.344877  -0.266829  149.36405  46.973545  -151.849215  -5.137447  0.623005  10.356327  94.963952  -8.856867  11.204584  -6.970544  -2.238394  15.952728  97.707701  29.397031  31.367543  -8.209786  -11.003393  -62.997422  78.901335  -3.322919  -22.44332  -11.28575  2.937676  3.07216  -8.47748  2.147462  2.358868  
0.0  89.887642  0.0  3.678757  -10.338511  -96.838823  -2.138573  -10.527944  -3.345242  2.515862  5.615466  29.302303  -0.649265  0.783546  -0.323845  -23.406065  12.608954  -4.264581  -15.696922  7.092249  6.030996  12.454128  1.612598  -1.010649  1.373682  -0.144695  0.557965  3.751304  -0.427022  1.516379  3.751303  -0.427022  1.516379  -11.091331  13.21203  -0.526974  148.538453  47.828694  -151.12257  -3.546615  1.225497  9.435408  95.76627  -9.31183  11.302118  -6.987607  -2.761731  15.694031  99.768336  29.25759  30.704975  -8.928506  -11.799605  -65.7505  73.76081  -4.926684  -23.332986  -12.878354  2.754287  2.945414  -9.670443  2.004758  2.26792  
0.0  89.887642  0.0  3.727291  -8.256271  -96.720683  -3.302213  -10.431743  -3.696934  2.057073  5.890019  29.261488  -0.509214  0.925999  -0.250901  -24.842049  12.745537  -4.361721  -15.383766  7.571493  6.286256  12.003306  1.648292  -1.010928  1.693797  -0.159125  0.672096  4.625065  -0.481721  1.824962  4.625065  -0.481721  1.824962  -13.703094  13.304873  -1.361458  147.520639  48.773035  -150.401672  -1.863788  1.911792  8.420966  96.539985  -9.822167  11.220473  -8.017418  -3.083885  14.894628  101.863888  29.207489  29.797863  -10.035181  -12.429448  -68.12606  69.660463  -6.191896  -24.318083  -15.255714  2.655243  2.556388  -11.451075  1.929076  1.98476  
0.0  89.887642  0.0  3.740264  -5.946802  -96.516464  -4.497375  -10.424852  -4.116005  1.466991  6.29337  29.076784  -0.380846  1.032359  -0.235169  -25.914884  13.162024  -4.318737  -15.777527  7.726395  6.485436  11.729752  1.642033  -0.986803  1.884839  -0.154893  0.676552  5.147304  -0.475752  1.835959  5.147304  -0.475752  1.835959  -15.328383  13.283441  -1.515842  146.382335  49.686058  -149.524647  -0.196335  2.619663  7.317855  97.206042  -10.315829  10.96935  -8.087484  -3.64038  14.655459  103.700496  29.170206  28.693396  -10.35992  -14.563453  -70.379399  67.287798  -6.823093  -23.741138  -17.249878  2.62333  2.565791  -12.946421  1.896892  2.00002  
0.0  89.887642  0.0  3.74898  -3.889229  -96.514576  -5.198384  -10.496262  -4.360361  0.950433  6.697544  28.916082  -0.257845  1.148517  -0.154009  -26.738408  13.432558  -3.983832  -15.875037  8.047559  6.591814  11.316215  1.673897  -1.034137  2.114872  -0.20048  0.704143  5.774541  -0.608996  1.905539  5.774541  -0.608996  1.905539  -16.887168  13.514385  -1.778113  145.248532  50.603362  -148.578876  1.462389  3.432201  6.099973  97.87151  -10.789432  10.570642  -7.910441  -4.095886  14.250325  104.914833  28.983853  27.383658  -9.762474  -17.479174  -72.814578  65.394801  -7.072728  -22.455196  -19.227591  2.796232  2.588218  -14.429963  2.018132  2.031249  
0.0  89.887642  0.0  3.690756  -1.343119  -96.255222  -5.927039  -10.619261  -4.909207  0.355087  7.057524  28.76712  -0.257993  1.221414  -0.103954  -27.523656  13.868068  -3.741756  -16.743801  8.108342  6.716255  10.982198  1.687623  -1.079705  2.271685  -0.237228  0.696422  6.20222  -0.713092  1.879467  6.20222  -0.713092  1.879467  -18.321328  13.59063  -2.165287  144.135604  51.524684  -147.511407  3.12424  4.463492  4.784692  98.76838  -11.314531  10.147038  -7.586772  -4.716362  13.443093  105.245497  28.419829  25.552773  -7.988833  -20.379661  -75.286791  63.4433  -7.163278  -20.9009  -21.231696  2.929987  2.603665  -15.933104  2.110066  2.057208  
0.0  89.887642  0.0  3.490002  0.376809  -96.47988  -5.459662  -10.921511  -4.969474  -0.410395  7.382308  28.655565  -0.404901  1.301423  -0.13657  -27.108416  14.267397  -2.8002  -17.598267  8.216741  6.802907  10.445314  1.673756  -1.165344  2.621654  -0.305979  0.756387  7.156072  -0.917064  2.031694  7.156072  -0.917064  2.031695  -19.964573  13.432438  -2.55478  143.072744  52.378182  -146.227173  4.921402  5.706222  3.553861  99.91897  -11.81234  9.915389  -7.594336  -5.545958  12.436012  105.127304  27.629263  23.524892  -6.036722  -22.357402  -77.489189  61.141344  -7.379808  -19.795139  -23.492554  3.035094  2.646547  -17.628798  2.178399  2.105005  
0.0  89.887642  0.0  3.382014  3.096457  -96.27185  -5.492645  -11.075445  -5.509171  -1.364905  7.707876  28.517762  -0.678626  1.302543  -0.219713  -27.515079  14.662869  -2.244181  -18.931886  8.261329  6.824946  10.046777  1.715099  -1.222852  2.843449  -0.359726  0.708858  7.761586  -1.064878  1.892408  7.761586  -1.064878  1.892408  -21.537407  13.257087  -2.781664  142.119264  53.061299  -144.772184  6.915118  7.116198  2.535086  101.33054  -12.302994  9.995502  -7.670791  -6.201674  11.846166  105.170117  27.050307  21.598347  -4.678509  -23.512266  -79.146749  58.870577  -7.447975  -19.066998  -25.864473  3.221718  2.779279  -19.408326  2.303538  2.225261  
